<?xml version="1.0" encoding="UTF-8" standalone="no"?>
<!-- Created with Inkscape (http://www.inkscape.org/) -->
<svg xmlns:dc="http://purl.org/dc/elements/1.1/" xmlns:cc="http://creativecommons.org/ns#" xmlns:rdf="http://www.w3.org/1999/02/22-rdf-syntax-ns#" xmlns:svg="http://www.w3.org/2000/svg" xmlns="http://www.w3.org/2000/svg" xmlns:sodipodi="http://sodipodi.sourceforge.net/DTD/sodipodi-0.dtd" xmlns:inkscape="http://www.inkscape.org/namespaces/inkscape" id="svg2" sodipodi:version="0.32" inkscape:version="0.46" width="300" height="309" version="1.0" sodipodi:docname="World Heritage Logo.svg" inkscape:output_extension="org.inkscape.output.svg.inkscape">
  <metadata id="metadata7">
    <rdf:RDF>
      <cc:Work rdf:about="">
        <dc:format>image/svg+xml</dc:format>
        <dc:type rdf:resource="http://purl.org/dc/dcmitype/StillImage"/>
      </cc:Work>
    </rdf:RDF>
  </metadata>
  <defs id="defs5">
    <inkscape:perspective sodipodi:type="inkscape:persp3d" inkscape:vp_x="0 : 526.18109 : 1" inkscape:vp_y="0 : 1000 : 0" inkscape:vp_z="744.09448 : 526.18109 : 1" inkscape:persp3d-origin="372.04724 : 350.78739 : 1" id="perspective9"/>
  </defs>
  <sodipodi:namedview inkscape:window-height="667" inkscape:window-width="640" inkscape:pageshadow="2" inkscape:pageopacity="0.0" guidetolerance="10.0" gridtolerance="10.0" objecttolerance="10.0" borderopacity="1.0" bordercolor="#666666" pagecolor="#ffffff" id="base" showgrid="false" inkscape:zoom="0.55378589" inkscape:cx="37.040293" inkscape:cy="74.740317" inkscape:window-x="22" inkscape:window-y="29" inkscape:current-layer="svg2"/>
  <path style="fill:#000000" d="M 143.99045,294.47314 C 144.33728,291.58564 144.62496,287.76064 144.62974,285.97314 C 144.63803,282.87148 144.81393,282.72314 148.48344,282.72314 C 154.49086,282.72314 157.68058,287.53813 154.067,291.15171 C 153.20272,292.016 151.17772,292.72314 149.567,292.72314 C 146.88673,292.72314 146.63843,293.01989 146.63843,296.22314 C 146.63843,298.79976 146.20595,299.72314 144.99914,299.72314 C 143.60817,299.72314 143.45537,298.92786 143.99045,294.47314 z M 152.45798,287.97314 C 152.63373,286.73564 152.40873,285.717 151.95798,285.70949 C 151.50723,285.70198 150.12593,285.42449 148.88843,285.09285 C 146.90005,284.55999 146.63843,284.85999 146.63843,287.67293 C 146.63843,290.55539 146.89812,290.8261 149.38843,290.53956 C 151.35744,290.313 152.22918,289.58415 152.45798,287.97314 z M 158.03982,296.39707 C 159.14978,290.48049 162.10706,282.38309 163.29996,281.99416 C 164.54385,281.5886 172.86085,296.55588 172.30996,298.20855 C 172.12898,298.75149 170.83975,297.96439 169.445,296.45943 C 165.93105,292.66781 162.16194,292.78263 160.78827,296.72314 C 159.32683,300.91544 157.23865,300.6677 158.03982,296.39707 z M 165.47076,289.2545 C 164.21717,286.50315 162.63843,286.79727 162.63843,289.78216 C 162.63843,291.04946 163.32515,291.72314 164.61699,291.72314 C 166.35784,291.72314 166.46042,291.42655 165.47076,289.2545 z M 177.69312,289.6412 C 176.48855,282.90081 176.31203,282.58825 174.03297,283.16025 C 172.35628,283.58108 171.63843,283.33922 171.63843,282.35348 C 171.63843,281.51422 173.15278,280.67129 175.38843,280.26616 C 177.45093,279.89239 180.15093,279.34353 181.38843,279.04646 C 183.01304,278.65645 183.63843,278.95338 183.63843,280.11473 C 183.63843,281.13993 182.77953,281.72314 181.26971,281.72314 L 178.90099,281.72314 L 180.25409,287.47314 C 181.96668,294.7508 181.97616,296.72314 180.29858,296.72314 C 179.42405,296.72314 178.5192,294.26364 177.69312,289.6412 z M 187.67861,287.1178 C 186.55651,283.48487 185.63843,279.90222 185.63843,279.15635 C 185.63843,277.18124 193.09825,275.36368 195.63425,276.7209 C 197.8335,277.89791 198.44734,283.10517 196.52676,284.29216 C 195.84201,284.71535 196.61009,285.73582 198.52676,286.94937 C 201.72841,288.97651 202.59405,290.72818 200.38843,290.71655 C 199.70093,290.71293 197.78843,289.81589 196.13843,288.72314 C 191.88933,285.90907 190.44764,286.09112 191.66318,289.28824 C 192.99359,292.78749 192.89136,293.72314 191.17861,293.72314 C 190.2521,293.72314 188.97346,291.31004 187.67861,287.1178 z M 193.37404,283.19577 C 196.05173,281.32025 195.3064,278.72314 192.09046,278.72314 C 189.25631,278.72314 188.55459,279.68653 189.3033,282.5496 C 189.97817,285.1303 190.49499,285.21234 193.37404,283.19577 z M 122.23925,291.42052 C 119.59946,289.49026 120.56442,286.29134 123.90267,285.90617 C 127.00309,285.54843 128.60457,287.96794 126.97613,290.54954 C 125.60127,292.72915 124.34485,292.96017 122.23925,291.42052 z M 97.13843,289.50729 C 95.48843,288.92541 93.984969,288.31998 93.797405,288.16188 C 93.179244,287.64082 99.072749,272.72314 99.896763,272.72314 C 101.85002,272.72314 107.63843,275.72616 107.63843,276.7395 C 107.63843,277.75671 106.11348,277.56397 102.01985,276.02935 C 101.40463,275.79872 100.6528,276.56018 100.34912,277.72147 C 99.927475,279.33383 100.40764,280.06509 102.38054,280.81519 C 104.19345,281.50446 104.64927,282.1123 103.90863,282.85294 C 103.16959,283.59198 102.2639,283.59307 100.88772,282.85656 C 99.254406,281.98243 98.740249,282.20426 97.844902,284.16933 C 96.881793,286.28312 97.078896,286.66295 99.702966,287.74987 C 102.65617,288.97313 103.71485,290.79112 101.38843,290.64419 C 100.70093,290.60077 98.78843,290.08916 97.13843,289.50729 z M 201.81668,281.47314 C 198.21985,273.28104 198.104,272.72314 199.99978,272.72314 C 200.74853,272.72314 202.77353,276.08787 204.49978,280.20032 C 208.09154,288.75694 208.08432,288.72314 206.31915,288.72314 C 205.59354,288.72314 203.56743,285.46064 201.81668,281.47314 z M 208.34887,278.85353 C 204.11262,271.01042 204.14352,271.12703 206.10231,270.37538 C 206.95071,270.04981 209.81293,271.64382 212.90998,274.16666 L 218.25377,278.51968 L 217.5191,273.37141 C 216.33099,265.04556 216.4508,263.71995 218.38843,263.75288 C 220.84572,263.79463 228.12912,276.66132 226.53759,278.14898 C 225.79408,278.84397 225.25414,278.87014 225.00799,278.22314 C 224.79875,277.67314 223.58643,275.50304 222.31394,273.4007 L 220.00033,269.57827 L 220.43957,275.6507 C 220.95707,282.80502 219.95417,283.33973 214.60066,278.76378 C 209.86842,274.71887 209.33332,274.98669 212.18436,279.97314 C 214.96792,284.84155 215.14646,285.72314 213.34887,285.72314 C 212.6396,285.72314 210.3896,282.63181 208.34887,278.85353 z M 84.63843,284.0137 C 79.470788,282.1136 77.062514,277.03726 79.060337,272.2558 C 81.651068,266.05531 87.925374,264.85624 92.715353,269.64622 C 94.323045,271.25391 95.63843,273.05391 95.63843,273.64622 C 95.63843,275.59959 93.131859,274.76673 92.125558,272.47898 C 90.205637,268.11419 83.439492,268.98645 81.755979,273.81578 C 80.425761,277.63165 81.686277,280.44606 85.110459,281.30548 C 89.294994,282.35573 91.548678,279.4642 87.537767,278.19119 C 86.213305,277.77082 85.787591,277.17398 86.385641,276.57593 C 87.41095,275.55062 92.63843,277.4406 92.63843,278.8366 C 92.63843,279.27244 92.116198,280.77521 91.477915,282.17609 C 90.343248,284.66641 88.072687,285.27646 84.63843,284.0137 z M 71.296457,273.44305 C 71.748778,270.65572 71.435839,269.95268 69.21338,268.76325 C 67.204094,267.68791 66.324615,267.63695 65.418224,268.54335 C 64.073705,269.88786 60.63843,270.14253 60.63843,268.89768 C 60.63843,268.44367 64.047445,265.91269 68.214018,263.27327 C 76.764205,257.85693 78.407954,258.06281 76.778544,264.34594 C 76.225531,266.4784 75.275428,270.13564 74.667204,272.47314 C 73.31321,277.67675 70.476987,278.49285 71.296457,273.44305 z M 73.924465,264.73734 C 74.453447,262.71451 73.751687,262.78353 70.841096,265.04057 C 69.810438,265.8398 69.800624,266.20535 70.79335,266.81889 C 72.405863,267.81547 73.269689,267.24121 73.924465,264.73734 z M 229.99543,271.73156 C 224.3404,269.44947 222.82428,261.30894 227.28445,257.17539 C 230.83047,253.88905 235.56105,253.91848 238.89017,257.2476 C 243.56479,261.92223 242.97584,267.32754 237.42299,270.71308 C 233.815,272.91286 233.149,273.00418 229.99543,271.73156 z M 237.63843,267.72314 C 240.0439,265.31767 240.13901,263.88283 238.08715,260.95338 C 235.7725,257.64876 233.02174,256.44763 230.66135,257.71087 C 227.29163,259.51429 226.37875,262.32029 228.08704,265.62376 C 230.42354,270.14206 234.35532,271.00625 237.63843,267.72314 z M 53.683852,262.47314 C 53.708833,261.78564 55.730153,259.19814 58.175672,256.72314 C 63.016438,251.82402 63.404571,250.95437 61.13843,250.08477 C 59.628262,249.50526 58.991265,246.68635 60.38843,246.76578 C 61.946365,246.85435 70.023388,254.67152 69.302164,255.39274 C 68.887084,255.80782 67.686308,255.60962 66.633772,254.9523 C 64.951543,253.90173 64.201076,254.35983 60.429251,258.73967 C 56.275158,263.56339 53.590235,265.04945 53.683852,262.47314 z M 120.13843,260.24508 C 91.14557,251.65009 66.543949,231.49234 52.986666,205.22314 C 44.164565,188.12904 40.63843,173.41053 40.63843,153.68012 C 40.63843,124.13188 50.779877,99.070131 71.444273,77.552104 C 88.26809,60.033307 110.2,48.48549 133.84179,44.69792 C 145.69369,42.799168 166.86327,43.901739 178.84424,47.041773 C 197.39484,51.903608 214.68268,61.847561 228.70761,75.723141 C 271.14598,117.70959 272.38554,185.99518 231.49352,229.19477 C 217.92697,243.5269 203.6856,252.7809 185.92214,258.80693 C 170.01523,264.20314 160.44575,263.73477 156.56477,257.37005 C 154.79247,254.4635 154.64711,252.08454 154.66162,226.22314 L 154.67732,198.22314 L 175.62267,176.72314 C 187.14261,164.89814 196.58385,154.99447 196.60322,154.71499 C 196.62259,154.4355 186.2872,143.86294 173.6357,131.22041 L 150.63296,108.23398 L 127.3914,131.47554 L 104.14984,154.7171 L 125.39414,175.97865 L 146.63843,197.24019 L 146.60663,226.73167 C 146.57166,259.15586 146.68148,258.55373 140.31806,261.21253 C 135.31439,263.3032 129.51656,263.02524 120.13843,260.24508 z M 126.60058,223.47314 L 126.56272,208.22314 L 100.13616,181.22314 L 73.709599,154.22314 L 111.42031,116.47191 C 132.16121,95.708729 149.46355,78.833729 149.86997,78.971907 C 150.27638,79.110086 167.62799,96.221816 188.4291,116.99797 L 226.24929,154.77281 L 200.44386,180.45515 L 174.63843,206.1375 L 174.63843,222.49771 L 174.63843,238.85792 L 176.88843,238.16303 C 200.9065,230.74535 221.97821,212.56035 232.04408,190.56342 C 237.69303,178.21877 239.10217,171.07585 239.11459,154.72314 C 239.12374,142.6671 238.73603,138.79047 236.81431,131.72314 C 229.81795,105.99322 212.53314,85.230442 188.57419,73.776347 C 174.7666,67.175331 166.52843,65.403847 149.63843,65.403847 C 137.95495,65.403847 133.62649,65.817074 127.35465,67.531222 C 89.61914,77.844666 63.011017,110.00845 60.019614,148.92552 C 57.604543,180.34472 74.718351,211.55768 103.88467,228.92866 C 110.55768,232.90299 122.97124,238.51641 125.38843,238.65267 C 126.33842,238.70623 126.62934,235.06302 126.60058,223.47314 z M 242.78428,255.8915 C 237.84082,250.18519 236.31096,247.11398 238.83026,247.95375 C 239.48576,248.17225 242.26533,250.92018 245.00707,254.06026 C 248.43022,257.98074 249.66905,260.09252 248.9611,260.80047 C 248.25315,261.50842 246.31789,259.97039 242.78428,255.8915 z M 45.63843,254.93898 C 45.63843,253.67035 56.087267,243.72314 57.419875,243.72314 C 59.610582,243.72314 58.719,245.21189 53.356985,250.5073 C 48.521978,255.28225 45.63843,256.93786 45.63843,254.93898 z M 247.89746,250.37525 C 239.97825,242.7651 241.51092,241.57404 255.63843,244.3596 C 257.83118,244.79195 257.59566,244.34886 253.722,240.75427 C 250.95297,238.18473 249.65762,236.30395 250.24938,235.71219 C 251.33221,234.62936 263.66671,244.61869 263.22795,246.22314 C 262.92076,247.34648 257.25984,247.4991 250.93841,246.55448 L 246.73839,245.92686 L 251.12466,249.575 C 255.35208,253.09102 256.81873,255.72314 254.55049,255.72314 C 253.95212,255.72314 250.95826,253.31659 247.89746,250.37525 z M 41.63843,249.96654 C 41.63843,249.00041 42.055277,246.75648 42.564757,244.98002 C 43.723212,240.94073 42.61452,240.16751 39.348238,242.73677 C 36.398144,245.05731 35.63843,245.20028 35.63843,243.4349 C 35.63843,242.72637 37.55093,240.58654 39.88843,238.67972 C 48.527464,231.63241 47.532905,231.92142 50.750974,235.52307 C 52.339075,237.30046 53.63843,239.63722 53.63843,240.71586 C 53.63843,243.0142 49.29213,246.18797 47.228909,245.39623 C 45.714479,244.81509 44.63843,246.6464 44.63843,249.80493 C 44.63843,250.85994 43.96343,251.72314 43.13843,251.72314 C 42.31343,251.72314 41.63843,250.93267 41.63843,249.96654 z M 50.40585,240.69231 C 50.565563,239.86299 50.120532,238.39713 49.416893,237.43485 C 48.229829,235.81144 47.970711,235.8021 45.824539,237.30534 C 43.608278,238.85767 43.584809,239.00641 45.263472,240.86131 C 47.242673,243.0483 49.969385,242.95869 50.40585,240.69231 z M 259.89766,236.86678 C 257.01524,234.78126 254.36282,232.78086 254.0034,232.42145 C 253.2793,231.69734 257.69754,224.74082 258.88843,224.72997 C 260.09677,224.71896 259.69262,227.06748 258.1311,229.1308 C 256.85589,230.81579 256.88878,231.18884 258.41291,232.32697 C 259.87956,233.42218 260.39071,233.28825 261.82004,231.43425 C 263.90817,228.72572 265.5544,230.02679 263.73182,232.9452 C 262.57455,234.79829 262.64472,235.25517 264.26968,236.44737 C 265.92312,237.66046 266.37319,237.52489 268.17599,235.27078 C 271.87412,230.64688 273.0922,232.87277 269.57034,237.81877 C 268.43288,239.41617 266.97038,240.70862 266.32034,240.69088 C 265.67029,240.67314 262.78008,238.9523 259.89766,236.86678 z M 29.744172,235.1939 C 28.42733,233.26033 27.52733,231.53307 27.744172,231.35554 C 27.961013,231.17801 31.021965,229.09809 34.546288,226.73349 L 40.954146,222.43422 L 43.769387,225.82868 C 46.968841,229.6864 47.265595,230.72314 45.170367,230.72314 C 44.362933,230.72314 43.109003,229.59078 42.383856,228.20679 C 41.220113,225.98571 40.849491,225.84832 39.225307,227.03596 C 37.671013,228.17248 37.572777,228.73195 38.592838,230.63795 C 40.21481,233.66863 38.812768,234.80758 36.921889,231.99534 C 35.726733,230.21783 35.041401,229.97229 33.5312,230.78053 C 31.254428,231.99902 31.09336,234.02588 33.138429,235.72314 C 34.963143,237.23752 35.087433,238.72559 33.388429,238.71631 C 32.700929,238.71255 31.061013,237.12746 29.744172,235.1939 z M 23.638429,225.74882 C 23.638429,225.21294 24.988429,224.07639 26.638429,223.22314 C 30.159404,221.40237 30.08541,221.72832 27.980031,217.3133 C 26.361124,213.91841 26.255151,213.86998 23.529691,215.27937 C 20.307349,216.94571 18.638429,217.11995 18.638429,215.79003 C 18.638429,214.88871 31.267208,207.72314 32.855704,207.72314 C 33.286203,207.72314 33.63843,208.39814 33.63843,209.22314 C 33.63843,210.04814 33.274437,210.72314 32.829559,210.72314 C 32.38468,210.72314 31.206815,211.31826 30.212082,212.04563 C 28.499023,213.29824 28.492497,213.54026 30.088546,216.62668 C 31.342806,219.05215 32.203744,219.70213 33.456022,219.16901 C 36.017532,218.07853 38.899088,218.10545 39.249748,219.22314 C 39.422303,219.77314 36.317847,221.69338 32.350956,223.49034 C 24.596391,227.00308 23.638429,227.2514 23.638429,225.74882 z M 272.3462,216.47534 C 267.5742,214.31487 265.64885,212.92775 265.87297,211.81169 C 266.13076,210.52802 267.5847,210.23569 273.44875,210.28855 L 280.70552,210.35396 L 275.464,205.04652 C 271.48062,201.01303 270.50158,199.45999 271.38522,198.57635 C 272.26885,197.69272 274.35904,198.20328 280.09319,200.70341 C 284.24307,202.5128 287.63843,204.38244 287.63843,204.85817 C 287.63843,206.14467 285.32976,205.90994 281.26055,204.20972 C 276.66439,202.28932 276.63622,203.636 281.18893,207.63333 C 283.1417,209.34789 284.46514,211.19451 284.12991,211.73693 C 283.79468,212.27934 280.73445,212.74686 277.32941,212.77585 L 271.13843,212.82856 L 276.38739,215.02585 C 281.13002,217.01119 282.59373,218.71693 280.07593,219.32429 C 279.56031,219.44868 276.08193,218.16665 272.3462,216.47534 z M 277.27329,195.65056 C 273.91507,193.00899 273.65153,187.24749 276.71101,183.358 C 278.32869,181.30145 279.65557,180.72314 282.75646,180.72314 C 290.5068,180.72314 294.40189,188.94025 289.56585,195.08828 C 286.92428,198.4465 281.16278,198.71004 277.27329,195.65056 z M 288.08173,192.50063 C 290.1391,189.56332 290.04535,188.13006 287.63843,185.72314 C 283.9084,181.99311 276.63843,184.19145 276.63843,189.04939 C 276.63843,194.4099 284.9819,196.92625 288.08173,192.50063 z M 12.927217,195.92278 C 11.448719,194.98319 8.6384299,188.46591 8.6384299,185.97675 C 8.6384299,184.57892 10.177356,183.77172 15.388429,182.43623 C 19.100929,181.48479 22.647508,180.71012 23.269715,180.71474 C 23.891922,180.71936 24.903881,182.72027 25.518514,185.1612 C 26.803879,190.26584 25.813894,194.02368 22.752039,195.66234 C 20.454596,196.89189 14.692513,197.04464 12.927217,195.92278 z M 21.70417,192.68796 C 22.895272,192.0505 23.632546,190.60972 23.623116,188.93796 C 23.596052,184.13973 22.665668,183.63318 16.747296,185.19442 C 13.823634,185.96567 11.291125,186.73764 11.119499,186.90991 C 10.947873,187.08219 11.422699,188.68564 12.174667,190.47314 C 13.301331,193.15133 14.08977,193.72314 16.655897,193.72314 C 18.368605,193.72314 20.640328,193.25731 21.70417,192.68796 z M 7.1922989,179.47314 C 6.9814499,178.78564 6.5803649,176.57569 6.3009979,174.56214 C 5.7209319,170.3813 5.8330849,170.32119 16.388429,169.15521 C 21.584089,168.58127 22.63843,168.71784 22.63843,169.96476 C 22.63843,171.09104 20.875488,171.63843 15.562033,172.16201 L 8.4856379,172.8593 L 9.1499319,176.79122 C 9.5942049,179.42085 9.4435089,180.72314 8.6949429,180.72314 C 8.0793379,180.72314 7.4031479,180.16064 7.1922989,179.47314 z M 281.88843,176.99093 C 275.48516,176.4142 276.16455,173.79533 283.64492,170.22004 C 290.24954,167.06332 290.03024,165.76418 282.88843,165.73845 C 279.6197,165.72668 278.63843,165.34392 278.63843,164.08068 C 278.63843,162.66587 279.49035,162.52727 284.78512,163.08068 C 288.1658,163.43403 291.9908,163.72314 293.28512,163.72314 C 294.94913,163.72314 295.63843,164.29252 295.63843,165.66706 C 295.63843,167.0764 293.99388,168.34902 289.6583,170.29471 C 283.24851,173.17125 282.70791,174.72314 288.11566,174.72314 C 292.03225,174.72314 294.63843,175.56499 294.63843,176.83013 C 294.63843,177.70398 290.39877,177.75745 281.88843,176.99093 z M 5.3644109,165.99484 C 5.7291779,165.04427 7.2900549,163.20427 8.8330269,161.90594 C 12.546758,158.78104 12.371082,157.72314 8.1384299,157.72314 C 5.6939859,157.72314 4.6384299,157.27076 4.6384299,156.22314 C 4.6384299,155.00745 6.2495409,154.72314 13.13843,154.72314 L 21.638429,154.72314 L 21.638429,159.20009 C 21.638429,162.83911 21.183068,163.9754 19.205487,165.27116 C 17.312936,166.51121 16.313421,166.61957 14.705487,165.75903 C 13.568606,165.15059 12.63843,164.1957 12.63843,163.63706 C 12.63843,163.07843 11.133454,163.76926 9.2940389,165.17225 C 5.3663009,168.16808 4.4574549,168.35833 5.3644109,165.99484 z M 18.438429,162.52314 C 19.098429,161.86314 19.638429,160.51314 19.638429,159.52314 C 19.638429,158.18981 18.860651,157.72314 16.638429,157.72314 C 13.453376,157.72314 12.999897,158.66151 14.673613,161.78888 C 15.87101,164.02624 16.761631,164.19994 18.438429,162.52314 z M 279.63843,153.29572 C 279.63843,148.62346 280.00504,147.57993 282.27329,145.79572 C 288.43104,140.95203 295.17091,144.74827 295.90383,153.47314 L 296.34484,158.72314 L 287.99164,158.72314 L 279.63843,158.72314 L 279.63843,153.29572 z M 293.63843,152.79457 C 293.63843,149.0839 291.30545,146.72314 287.63843,146.72314 C 283.97141,146.72314 281.63843,149.0839 281.63843,152.79457 C 281.63843,155.70727 281.67095,155.72314 287.63843,155.72314 C 293.60591,155.72314 293.63843,155.70727 293.63843,152.79457 z M 10.008478,150.30544 C 6.0462759,148.55242 5.3657029,147.41002 5.3657029,142.51213 C 5.3657029,137.12378 8.2695089,134.26859 13.749612,134.26859 C 21.336944,134.26859 25.328018,142.60153 20.388429,148.12973 C 17.532103,151.32642 13.992848,152.06827 10.008478,150.30544 z M 17.472117,147.12708 C 20.707116,144.86119 20.12603,139.83543 16.388429,137.75434 C 13.917847,136.37872 13.359012,136.37945 10.88843,137.76148 C 7.0904589,139.88606 6.9437389,145.55966 10.63843,147.42887 C 13.897767,149.07782 14.740156,149.04062 17.472117,147.12708 z M 278.63843,139.22314 C 278.63843,138.31474 279.56658,137.72314 280.99174,137.72314 C 282.28606,137.72314 286.11106,137.43403 289.49174,137.08068 C 294.57433,136.54945 295.63843,136.6979 295.63843,137.93823 C 295.63843,139.03919 294.00326,139.60914 289.49174,140.08068 C 280.31443,141.0399 278.63843,140.90748 278.63843,139.22314 z M 14.638429,129.62752 C 6.8243949,124.94753 5.7900069,122.76751 11.315106,122.62346 C 13.417934,122.56864 16.224291,122.22009 17.551455,121.84891 C 19.816155,121.21552 19.677849,121.02198 15.301455,118.7003 C 9.3055029,115.51946 8.9300209,112.72314 14.498858,112.72314 C 16.622094,112.72314 20.447094,112.43697 22.998859,112.08722 C 26.839855,111.56075 27.638429,111.72501 27.638429,113.04153 C 27.638429,114.30891 26.268029,114.69179 20.888429,114.92745 L 14.138429,115.22314 L 19.888429,118.18146 C 28.101048,122.40677 27.785163,124.53772 18.888429,124.92745 L 12.13843,125.22314 L 17.88584,128.22314 C 23.103347,130.94654 24.584348,132.74427 22.075929,133.30932 C 21.560304,133.42547 18.213429,131.76866 14.638429,129.62752 z M 285.14698,131.83769 C 279.85572,130.73332 277.06455,129.67195 276.88624,128.69645 C 276.62463,127.26519 289.17244,118.72314 291.53649,118.72314 C 293.3956,118.72314 292.76329,120.41131 290.29952,122.02564 C 286.92536,124.23647 287.71296,129.47863 291.48512,129.91687 C 293.04291,130.09785 294.25709,130.93903 294.4532,131.97314 C 294.63573,132.93564 294.41458,133.6742 293.96175,133.61438 C 293.50893,133.55456 289.54228,132.75505 285.14698,131.83769 z M 286.00006,127.22314 C 285.2796,125.34567 284.52781,125.33957 282.07956,127.19134 C 280.24219,128.58105 280.31047,128.66123 283.35705,128.69134 C 285.81437,128.71562 286.43952,128.36835 286.00006,127.22314 z M 274.63843,118.34715 C 274.63843,117.51017 277.2025,116.23705 281.18394,115.09715 C 288.08473,113.12142 288.19536,112.944 286.03571,107.31604 C 285.65596,106.32643 285.95453,105.72314 286.82404,105.72314 C 287.98583,105.72314 291.37877,114.61571 290.42057,115.14931 C 289.70438,115.54814 275.91827,119.72314 275.31748,119.72314 C 274.944,119.72314 274.63843,119.10394 274.63843,118.34715 z M 26.267368,94.209223 C 24.166089,92.107943 24.215134,91.416194 26.619671,89.240116 C 28.241043,87.772795 28.876779,87.676065 30.119671,88.707574 C 31.446862,89.809044 32.345893,94.723141 31.220216,94.723141 C 30.9902,94.723141 30.148222,94.974021 29.349155,95.280651 C 28.550089,95.587282 27.163284,95.105139 26.267368,94.209223 z M 271.38843,94.643042 C 267.50882,92.383376 270.89982,86.7223 274.86261,88.843117 C 276.90433,89.935814 277.19164,92.769927 275.43843,94.523141 C 274.00553,95.956043 273.66027,95.966265 271.38843,94.643042 z M 254.281,76.642555 C 252.70941,74.42172 251.58441,72.500692 251.781,72.373605 C 251.97759,72.246518 254.70662,70.248173 257.84552,67.932839 C 263.11235,64.047889 266.66943,62.644863 266.61686,64.473141 C 266.605,64.885641 264.13,66.989325 261.11686,69.147994 C 255.38511,73.254327 254.64857,74.656742 257.13843,76.723141 C 258.69223,78.01268 259.20622,80.739305 257.88843,80.70179 C 257.47593,80.690046 255.85259,78.863391 254.281,76.642555 z M 39.307916,75.663427 C 36.651133,73.501365 33.726133,71.309385 32.807915,70.79236 C 31.342609,69.967284 31.559898,69.416363 34.584597,66.287728 C 38.442839,62.296906 40.548815,61.861649 42.983442,64.551882 C 45.113095,66.905122 45.086457,69.570595 42.909244,71.976389 C 41.409326,73.633779 41.376179,74.005058 42.659244,74.776642 C 46.290926,76.96059 46.852596,77.567597 46.207528,78.611338 C 45.202345,80.237758 44.626731,79.991823 39.307916,75.663427 z M 41.458567,68.890342 C 41.88255,66.008297 38.998402,64.926774 36.810889,67.147515 C 35.246766,68.735396 35.265363,68.939456 37.097993,70.297738 C 39.5812,72.138205 41.050533,71.663971 41.458567,68.890342 z M 249.65374,69.973141 C 249.66216,69.010641 250.09145,67.555097 250.60772,66.738598 C 251.27242,65.687336 250.94458,64.61347 249.48444,63.059227 C 247.74565,61.208374 247.04337,61.037144 245.00334,61.966645 C 243.21543,62.781274 242.28248,62.767193 241.42797,61.912682 C 240.79206,61.276768 240.46676,60.602207 240.7051,60.413657 C 241.61732,59.691982 256.20007,54.713745 257.38843,54.718324 C 259.43656,54.726217 258.83915,57.374489 255.12586,64.748105 C 251.70735,71.536348 249.62265,73.526925 249.65374,69.973141 z M 254.00912,60.280145 L 255.60984,57.837148 L 252.59213,58.889125 C 250.16925,59.733745 249.80199,60.215287 250.72888,61.332121 C 252.21226,63.119495 252.1318,63.145299 254.00912,60.280145 z M 47.336021,63.162752 C 42.139535,52.660839 42.689468,52.13088 54.277764,56.473141 C 61.98185,59.359946 64.590925,62.499614 58.305979,61.320551 C 55.693811,60.830506 54.56866,61.142755 53.100367,62.7652 C 51.534588,64.495367 51.430603,65.160711 52.466695,66.819758 C 53.655939,68.724039 53.313827,70.723141 51.798698,70.723141 C 51.401765,70.723141 49.39356,67.320966 47.336021,63.162752 z M 50.457603,58.126365 C 47.578923,56.585743 47.154758,56.950874 48.627148,59.702061 C 49.575041,61.473214 50.041977,61.633116 51.275835,60.609105 C 52.577063,59.529182 52.469617,59.203163 50.457603,58.126365 z M 237.63843,58.845251 C 237.63843,57.35479 247.85551,46.723141 249.28785,46.723141 C 251.39494,46.723141 250.99658,47.450221 245.41597,53.790123 C 240.67235,59.179149 237.63843,61.151093 237.63843,58.845251 z M 60.312044,51.492515 C 55.917776,46.392102 55.756192,46.306593 53.821287,48.057657 C 52.659298,49.109243 51.585675,49.446798 51.230555,48.872203 C 50.653921,47.939188 59.31186,39.743169 60.88843,39.729597 C 62.275309,39.717659 61.654181,41.991138 59.925149,43.255437 C 58.367158,44.394668 58.635894,45.004546 62.890061,49.984101 C 67.085454,54.89486 67.810288,56.723141 65.561797,56.723141 C 65.152982,56.723141 62.790593,54.369359 60.312044,51.492515 z M 228.8386,50.999701 C 226.52851,49.50181 224.63843,47.927414 224.63843,47.501045 C 224.63843,46.434086 233.79779,34.723141 234.63228,34.723141 C 235.00239,34.723141 237.03018,36.214264 239.13849,38.036747 C 244.21471,42.424799 244.43292,46.730575 239.78932,50.879628 C 235.83238,54.415152 234.13471,54.433767 228.8386,50.999701 z M 238.56585,48.088282 C 241.28157,44.635805 241.18043,43.12995 238.03716,40.216872 L 235.4359,37.806101 L 231.6456,42.514621 L 227.8553,47.223141 L 229.99687,48.950905 C 233.07258,51.432317 236.18162,51.119335 238.56585,48.088282 z M 67.212728,44.963586 L 62.398869,38.325892 L 65.197433,36.094395 C 68.988055,33.071859 71.106716,32.662413 73.66911,34.457184 C 75.258116,35.570167 75.718047,36.727316 75.408827,38.834168 C 75.031435,41.405505 75.328264,41.761929 78.313454,42.321954 C 80.184446,42.672954 81.63843,43.552994 81.63843,44.334432 C 81.63843,45.988119 79.770407,46.104016 76.031081,44.682327 C 74.525429,44.109879 72.634881,43.894261 71.829862,44.203176 C 70.574055,44.685074 70.598546,45.021588 72.002311,46.572731 C 72.902176,47.567071 73.63843,48.881131 73.63843,49.492865 C 73.63843,52.451643 71.602589,51.016641 67.212728,44.963586 z M 72.645197,39.710497 C 74.099024,36.993996 71.594083,35.330594 68.305717,36.828874 C 65.843344,37.950806 65.811391,38.076224 67.43839,40.233185 C 69.280446,42.675254 71.159457,42.486628 72.645197,39.710497 z M 219.88843,45.06086 C 219.04386,44.720068 218.63127,42.069848 218.61637,36.889808 L 218.59431,29.223141 L 215.53383,34.473141 C 213.85056,37.360641 211.83549,39.723141 211.05589,39.723141 C 210.27629,39.723141 209.63843,39.464315 209.63843,39.147971 C 209.63843,37.427208 218.0857,24.704289 219.02488,25.010489 C 219.63733,25.210165 220.58843,28.622332 221.13843,32.593083 L 222.13843,39.812631 L 224.61754,35.267886 C 225.98106,32.768276 227.66856,30.723141 228.36754,30.723141 C 229.06653,30.723141 229.63843,30.996369 229.63843,31.330315 C 229.63843,32.358324 222.17027,45.714364 221.63843,45.637504 C 221.36343,45.597762 220.57593,45.338273 219.88843,45.06086 z M 79.38843,37.271258 C 75.497264,30.616252 74.779923,28.270305 76.846796,28.959263 C 78.566177,29.53239 85.803071,41.647729 85.102827,42.780747 C 84.01718,44.537362 83.145522,43.696961 79.38843,37.271258 z M 84.853062,34.204207 C 83.085014,30.618794 81.63843,27.018794 81.63843,26.204207 C 81.63843,23.514407 84.655593,24.65905 89.493311,29.184168 L 94.26251,33.645195 L 94.20047,26.460943 C 94.151188,20.754123 94.455645,19.212911 95.680937,18.966551 C 96.749367,18.75173 98.210606,20.878158 100.43539,25.885328 C 104.20015,34.358462 103.25398,37.760369 99.265092,30.09304 L 96.731553,25.223141 L 96.684991,30.914124 C 96.659383,34.044165 96.27714,36.828396 95.835564,37.101306 C 95.393987,37.374215 92.874315,35.752575 90.236291,33.497661 L 85.439885,29.397818 L 87.994285,34.438685 C 90.296748,38.982376 90.488459,40.723141 88.686395,40.723141 C 88.346109,40.723141 86.621109,37.789621 84.853062,34.204207 z M 198.17782,33.575468 C 195.0709,31.131564 195.13068,29.39531 198.60014,21.308274 C 200.15395,17.68648 201.00277,16.687485 201.82646,17.511173 C 202.65015,18.334862 202.37781,19.991887 200.79133,23.809393 C 198.11792,30.242329 198.10851,31.369172 200.71657,32.764961 C 203.88741,34.46194 205.5122,33.257427 208.17538,27.235508 C 209.595,24.025502 211.25059,21.723141 212.13924,21.723141 C 213.49338,21.723141 213.48457,22.145541 212.06104,25.473141 C 211.17871,27.535641 210.20428,29.898141 209.89562,30.723141 C 207.9377,35.956458 202.79592,37.208062 198.17782,33.575468 z M 107.72915,30.623738 C 104.18709,29.221206 102.706,26.733966 102.67023,22.128129 C 102.63494,17.583907 104.41808,15.308305 108.88843,14.192645 C 115.16793,12.625465 120.12085,17.196873 119.44704,23.937947 C 118.9567,28.843514 112.51515,32.518824 107.72915,30.623738 z M 115.067,27.151712 C 116.98596,25.23275 117.10912,20.749114 115.31044,18.289271 C 113.43302,15.721735 108.67329,15.961875 106.42571,18.737516 C 102.05295,24.137643 110.17372,32.044994 115.067,27.151712 z M 189.96728,28.473141 C 190.26739,27.235641 190.79683,24.873141 191.14381,23.223141 C 191.75392,20.321888 191.72074,20.288972 190.13565,22.223141 C 189.23417,23.323141 187.69335,25.308665 186.71159,26.635416 C 184.28362,29.916592 181.66079,28.829976 181.56814,24.504526 C 181.52949,22.699764 181.14215,20.323141 180.7074,19.223141 C 180.05832,17.580838 179.79383,17.942193 179.22857,21.243596 C 178.44017,25.848283 177.07556,28.493601 176.02865,27.446696 C 175.63346,27.051507 176.13672,23.109013 177.14701,18.685596 C 178.56392,12.481775 179.34411,10.712395 180.5595,10.946455 C 181.55218,11.137625 182.4412,12.909845 182.96241,15.736515 C 184.80827,25.747177 184.2704,25.368329 188.69325,19.773004 C 192.48697,14.973595 195.62858,13.256825 195.64683,15.973145 C 195.67168,19.672847 192.04697,30.723141 190.80853,30.723141 C 189.87524,30.723141 189.60008,29.987231 189.96728,28.473141 z M 123.31061,26.028188 C 123.03696,25.035412 122.53338,22.423141 122.19155,20.223141 C 121.84971,18.023141 121.32467,14.985645 121.02478,13.473145 C 120.12908,8.9557046 123.53719,10.023605 128.94001,15.953305 C 134.2106,21.737887 134.05736,21.930051 132.11388,11.973145 C 131.62956,9.4918546 131.82746,8.7231446 132.95057,8.7231446 C 134.64412,8.7231446 135.40891,11.233825 136.29356,19.697744 C 137.10931,27.502363 135.52048,27.674773 129.14793,20.473141 L 124.50233,15.223145 L 125.18897,20.223141 C 125.56662,22.973141 125.93474,25.616891 126.00702,26.098141 C 126.26974,27.847501 123.79438,27.783283 123.31061,26.028188 z M 140.28639,22.010822 C 139.10594,14.867825 139.49996,8.7231446 141.13843,8.7231446 C 142.31462,8.7231446 142.67081,10.234255 142.78843,15.723145 C 142.87093,19.573141 142.98343,23.248141 143.03843,23.889808 C 143.09343,24.531474 142.63756,25.223431 142.02539,25.427489 C 141.4014,25.635486 140.63731,24.134263 140.28639,22.010822 z M 151.63843,25.016913 C 148.19789,23.759206 145.63843,20.332157 145.63843,16.983086 C 145.63843,12.444465 146.95631,10.248325 150.5808,8.7470146 C 156.55169,6.2737946 162.63843,10.080965 162.63843,16.288885 C 162.63843,21.105516 161.2863,23.301642 157.51032,24.617957 C 154.06983,25.817318 153.86589,25.831174 151.63843,25.016913 z M 158.067,21.151712 C 159.92218,19.296532 160.15005,13.634765 158.43843,11.923145 C 156.48432,9.9690346 150.86023,10.440185 149.67361,12.657395 C 147.13298,17.404621 149.49209,22.723141 154.13843,22.723141 C 155.43486,22.723141 157.20272,22.015998 158.067,21.151712 z" id="path2384"/>
</svg>